<?xml version="1.0" encoding="utf-8"?>
<!-- Generator: Adobe Illustrator 18.0.0, SVG Export Plug-In . SVG Version: 6.00 Build 0)  -->
<!DOCTYPE svg PUBLIC "-//W3C//DTD SVG 1.1//EN" "http://www.w3.org/Graphics/SVG/1.1/DTD/svg11.dtd">
<svg version="1.1" id="Layer_1" xmlns="http://www.w3.org/2000/svg" xmlns:xlink="http://www.w3.org/1999/xlink" x="0px" y="0px"
	 viewBox="0 0 198.6 49.7" enable-background="new 0 0 198.6 49.7" xml:space="preserve">
<g>
	<path fill="#99A0B0" d="M16.8,15.5c2.1,0,4,0.8,5.5,2l2-2.4c-2.1-1.7-4.7-2.8-7.6-2.8C10.3,12.3,5,17.6,5,24.1
		c0,6.5,5.3,11.8,11.8,11.8c2.9,0,5.5-1,7.6-2.8l-2-2.4c-1.6,1.3-3.5,2-5.5,2c-4.8,0-8.6-3.9-8.6-8.6C8.2,19.4,12,15.5,16.8,15.5
		L16.8,15.5z M82.1,13h-6.4c-0.9,0-1.6,0.7-1.6,1.6v19.1c0,0.9,0.7,1.6,1.6,1.6h6.4c6.1,0,11.1-5,11.1-11.1C93.2,18,88.3,13,82.1,13
		L82.1,13L82.1,13z M82.1,32.1h-4.8V16.2h4.8c4.4,0,7.9,3.6,7.9,7.9C90.1,28.5,86.5,32.1,82.1,32.1L82.1,32.1L82.1,32.1z
		 M101.8,14.6v19.1c0,0.9,0.7,1.6,1.6,1.6h13.2v-3.2H105v-6.4h7.4v-3.2H105v-6.4h11.6V13h-13.2C102.6,13,101.8,13.7,101.8,14.6
		C101.8,14.6,101.8,14.6,101.8,14.6L101.8,14.6L101.8,14.6z M149.9,14.6v19.1c0,0.9,0.7,1.6,1.6,1.6h13.2v-3.2h-11.6v-6.4h7.4v-3.2
		h-7.4v-6.4h11.6V13h-13.2C150.6,13,149.9,13.7,149.9,14.6C149.9,14.6,149.9,14.6,149.9,14.6L149.9,14.6L149.9,14.6z M134.8,13h-6.9
		c-0.9,0-1.6,0.7-1.6,1.6v20.6h3.2v-9.5h5.3c3.5,0,6.4-2.9,6.4-6.4C141.2,15.9,138.3,13,134.8,13C134.8,13,134.8,13,134.8,13z
		 M134.8,22.5h-5.3v-6.4h5.3c1.8,0,3.2,1.4,3.2,3.2S136.6,22.5,134.8,22.5L134.8,22.5z M189.6,13v16.3l-13.1-15.7
		c-0.4-0.5-1.1-0.7-1.8-0.5c-0.6,0.2-1,0.8-1,1.5v20.6h3.2V19L190,34.7c0.4,0.5,1.1,0.7,1.8,0.5c0.6-0.2,1-0.8,1-1.5V13L189.6,13
		L189.6,13z M65.2,18.7c0,0,0-0.1,0-0.1c0,0,0,0,0-0.1c0,0,0-0.1,0-0.1c0,0,0,0,0-0.1c0,0,0-0.1,0-0.1c0,0,0,0,0-0.1
		c-0.1-0.1-0.1-0.2-0.2-0.2c0,0,0,0-0.1-0.1c0,0-0.1,0-0.1-0.1c0,0,0,0-0.1,0c0,0,0,0,0,0L49,7.4c-0.5-0.3-1.1-0.3-1.6,0L31.9,17.8
		c0,0,0,0,0,0c0,0,0,0-0.1,0c-0.1,0-0.1,0.1-0.1,0.1c-0.1,0.1-0.1,0.1-0.2,0.2c0,0,0,0,0,0.1c0,0,0,0.1,0,0.1c0,0,0,0,0,0.1
		c0,0,0,0.1,0,0.1c0,0,0,0,0,0.1c0,0,0,0.1,0,0.1c0,0,0,0,0,0.1c0,0.1,0,0.1,0,0.2v10.3c0,0.1,0,0.1,0,0.2c0,0,0,0,0,0.1
		c0,0,0,0.1,0,0.1c0,0,0,0,0,0.1c0,0,0,0.1,0,0.1c0,0,0,0,0,0.1c0,0.1,0.1,0.2,0.2,0.3c0,0,0,0,0.1,0.1c0,0,0,0.1,0.1,0.1
		c0,0,0,0,0.1,0.1c0,0,0.1,0,0.1,0.1c0,0,0,0,0.1,0c0,0,0,0,0,0l15.5,10.3c0.2,0.2,0.5,0.2,0.8,0.2c0.3,0,0.6-0.1,0.8-0.2l15.5-10.3
		c0,0,0,0,0,0c0,0,0,0,0.1,0c0,0,0.1,0,0.1-0.1c0,0,0,0,0.1-0.1c0,0,0.1-0.1,0.1-0.1c0-0.1,0.1-0.1,0.1-0.2c0,0,0-0.1,0.1-0.1
		c0,0,0,0,0-0.1c0,0,0-0.1,0-0.1c0,0,0,0,0-0.1c0,0,0-0.1,0-0.1c0,0,0,0,0-0.1c0-0.1,0-0.1,0-0.2V19C65.2,18.9,65.2,18.8,65.2,18.7
		C65.2,18.8,65.2,18.7,65.2,18.7L65.2,18.7L65.2,18.7z M48.2,27.6l-5.1-3.4l5.1-3.4l5.2,3.4L48.2,27.6z M46.8,18.2l-6.3,4.2L35.4,19
		l11.4-7.6L46.8,18.2L46.8,18.2z M37.8,24.1l-3.6,2.4v-4.9L37.8,24.1L37.8,24.1z M40.5,25.9l6.3,4.2v6.8l-11.4-7.6L40.5,25.9
		L40.5,25.9L40.5,25.9z M49.7,30.1l6.3-4.2l5.1,3.4l-11.4,7.6V30.1z M58.6,24.1l3.6-2.4v4.9L58.6,24.1L58.6,24.1L58.6,24.1z
		 M56,22.4l-6.3-4.2v-6.8L61.1,19L56,22.4L56,22.4z"/>
</g>
</svg>
