<?xml version="1.0" encoding="utf-8"?>
<!-- Generator: Adobe Illustrator 18.0.0, SVG Export Plug-In . SVG Version: 6.00 Build 0)  -->
<!DOCTYPE svg PUBLIC "-//W3C//DTD SVG 1.1//EN" "http://www.w3.org/Graphics/SVG/1.1/DTD/svg11.dtd">
<svg version="1.1" id="Layer_1" xmlns="http://www.w3.org/2000/svg" xmlns:xlink="http://www.w3.org/1999/xlink" x="0px" y="0px"
	 viewBox="0 0 198.6 49.7" enable-background="new 0 0 198.6 49.7" xml:space="preserve">
<path fill="#99A0B0" d="M89.9,22.3h-7.2c-0.2,0-0.3,0.2-0.3,0.3v3.5c0,0.2,0.2,0.3,0.3,0.3h2.8v4.4c0,0-0.6,0.2-2.4,0.2
	c-2.1,0-4.9-0.8-4.9-7.1c0-6.3,3-7.2,5.8-7.2c2.4,0,3.5,0.4,4.2,0.6c0.2,0.1,0.4-0.1,0.4-0.3l0.8-3.4c0-0.1,0-0.2-0.1-0.3
	c-0.3-0.2-1.9-1.1-6.1-1.1c-4.8,0-9.8,2.1-9.8,11.9c0,9.9,5.7,11.3,10.4,11.3c4,0,6.4-1.7,6.4-1.7c0.1-0.1,0.1-0.2,0.1-0.3v-11
	C90.3,22.5,90.1,22.3,89.9,22.3z M126.5,13.2h-4.1c-0.2,0-0.3,0.2-0.3,0.3v7.9h-6.3v-7.9c0-0.2-0.2-0.3-0.3-0.3h-4.1
	c-0.2,0-0.3,0.2-0.3,0.3v21.3c0,0.2,0.2,0.3,0.3,0.3h4.1c0.2,0,0.3-0.2,0.3-0.3v-9.1h6.3l0,9.1c0,0.2,0.2,0.3,0.3,0.3h4.1
	c0.2,0,0.3-0.2,0.3-0.3l0-21.3C126.8,13.3,126.7,13.2,126.5,13.2z M94.8,13.7c-1.4,0-2.6,1.2-2.6,2.6c0,1.5,1.2,2.6,2.6,2.6
	s2.6-1.2,2.6-2.6C97.4,14.9,96.2,13.7,94.8,13.7z M97.1,20.5c0-0.2-0.2-0.3-0.3-0.3h-4.1c-0.2,0-0.4,0.2-0.4,0.4c0,0,0,11.8,0,14.1
	c0,0.4,0.3,0.5,0.6,0.5c0,0,1.7,0,3.7,0c0.4,0,0.5-0.2,0.5-0.5c0-0.8,0-3.7,0-4.3C97.1,29.8,97.1,20.5,97.1,20.5z M142.2,20.2h-4
	c-0.2,0-0.3,0.2-0.3,0.3V31c0,0-1,0.8-2.5,0.8c-1.5,0-1.8-0.7-1.8-2.1c0-1.4,0-9.1,0-9.1c0-0.2-0.2-0.3-0.3-0.3h-4.1
	c-0.2,0-0.3,0.2-0.3,0.3c0,0,0,5.6,0,9.8c0,4.2,2.4,5.3,5.6,5.3c2.7,0,4.8-1.5,4.8-1.5s0.1,0.8,0.2,0.9c0,0.1,0.2,0.2,0.3,0.2h2.6
	c0.2,0,0.3-0.2,0.3-0.3l0-14.3C142.6,20.3,142.4,20.2,142.2,20.2z M153.3,19.7c-2.3,0-3.9,1-3.9,1v-7.2c0-0.2-0.2-0.3-0.3-0.3H145
	c-0.2,0-0.3,0.2-0.3,0.3l0,21.3c0,0.2,0.2,0.3,0.3,0.3c0,0,2.8,0,2.8,0c0.1,0,0.2-0.1,0.3-0.2c0.1-0.1,0.2-1,0.2-1s1.7,1.6,4.8,1.6
	c3.7,0,5.8-1.9,5.8-8.4C159,20.6,155.6,19.7,153.3,19.7z M151.7,31.7c-1.4,0-2.3-0.7-2.3-0.7v-6.7c0,0,0.9-0.6,2.1-0.7
	c1.5-0.1,2.9,0.3,2.9,3.8C154.3,31.1,153.7,31.8,151.7,31.7z M108.9,31.6c-0.2,0-0.6,0.1-1.1,0.1c-1.5,0-2-0.7-2-1.6c0-0.9,0-6,0-6
	h3.1c0.2,0,0.3-0.2,0.3-0.3v-3.3c0-0.2-0.1-0.3-0.3-0.3h-3.1l0-4c0-0.2-0.1-0.2-0.3-0.2h-4.2c-0.2,0-0.2,0.1-0.2,0.2v4.2
	c0,0-2.1,0.5-2.2,0.5c-0.1,0-0.2,0.2-0.2,0.3v2.6c0,0.2,0.2,0.3,0.3,0.3h2.1c0,0,0,2.7,0,6.3c0,4.7,3.3,5.1,5.5,5.1
	c1,0,2.2-0.3,2.4-0.4c0.1,0,0.2-0.2,0.2-0.3l0-2.9C109.2,31.8,109.1,31.6,108.9,31.6z"/>
<g>
	<path fill="#99A0B0" d="M66.4,16.1c-1.4-2.5-3.4-4.4-5.9-5.9C58,8.7,55.3,8,52.4,8c-2.9,0-5.6,0.7-8.1,2.2
		c-2.5,1.4-4.4,3.4-5.9,5.9c-1.4,2.5-2.2,5.2-2.2,8.1c0,3.5,1,6.7,3.1,9.5c2.1,2.8,4.7,4.8,8,5.8c0.4,0.1,0.7,0,0.8-0.1
		c0.2-0.2,0.3-0.4,0.3-0.6c0,0,0-0.4,0-1.1c0-0.7,0-1.3,0-1.9l-0.5,0.1c-0.3,0.1-0.7,0.1-1.2,0.1c-0.5,0-1-0.1-1.5-0.1
		c-0.5-0.1-1-0.3-1.4-0.6c-0.4-0.3-0.7-0.8-0.9-1.3l-0.2-0.5c-0.1-0.3-0.4-0.7-0.7-1.1c-0.3-0.4-0.6-0.7-0.9-0.8l-0.1-0.1
		c-0.1-0.1-0.2-0.2-0.3-0.3c-0.1-0.1-0.1-0.2-0.2-0.3c0-0.1,0-0.2,0.1-0.2c0.1-0.1,0.3-0.1,0.6-0.1l0.4,0.1c0.3,0.1,0.6,0.2,1,0.5
		c0.4,0.3,0.8,0.6,1,1.1c0.3,0.6,0.7,1,1.2,1.3c0.5,0.3,0.9,0.5,1.4,0.5c0.5,0,0.9,0,1.2-0.1c0.3-0.1,0.7-0.2,0.9-0.3
		c0.1-0.9,0.5-1.7,1-2.2c-0.8-0.1-1.5-0.2-2.2-0.4c-0.6-0.2-1.3-0.4-2-0.8c-0.7-0.4-1.2-0.8-1.7-1.4c-0.4-0.6-0.8-1.3-1.1-2.2
		c-0.3-0.9-0.4-2-0.4-3.2c0-1.7,0.6-3.1,1.7-4.3c-0.5-1.3-0.5-2.7,0.1-4.3c0.4-0.1,1,0,1.8,0.3c0.8,0.3,1.4,0.6,1.8,0.8
		c0.4,0.2,0.7,0.4,0.9,0.6c1.3-0.4,2.7-0.5,4-0.5s2.7,0.2,4,0.5l0.8-0.5c0.5-0.3,1.2-0.6,1.9-0.9c0.7-0.3,1.3-0.4,1.7-0.2
		c0.6,1.6,0.7,3,0.2,4.3c1.1,1.2,1.7,2.6,1.7,4.3c0,1.2-0.1,2.3-0.4,3.2c-0.3,0.9-0.7,1.7-1.1,2.2c-0.5,0.6-1,1-1.7,1.4
		c-0.7,0.4-1.3,0.7-2,0.8c-0.6,0.2-1.4,0.3-2.2,0.4c0.7,0.6,1.1,1.6,1.1,3v4.4c0,0.3,0.1,0.5,0.3,0.6c0.2,0.2,0.5,0.2,0.8,0.1
		c3.3-1.1,5.9-3,8-5.8c2.1-2.8,3.1-6,3.1-9.5C68.5,21.2,67.8,18.5,66.4,16.1z"/>
</g>
</svg>
