<?xml version="1.0" encoding="utf-8"?>
<!-- Generator: Adobe Illustrator 18.0.0, SVG Export Plug-In . SVG Version: 6.00 Build 0)  -->
<!DOCTYPE svg PUBLIC "-//W3C//DTD SVG 1.1//EN" "http://www.w3.org/Graphics/SVG/1.1/DTD/svg11.dtd">
<svg version="1.1"
	 id="svg2" xmlns:rdf="http://www.w3.org/1999/02/22-rdf-syntax-ns#" xmlns:cc="http://creativecommons.org/ns#" xmlns:svg="http://www.w3.org/2000/svg" xmlns:dc="http://purl.org/dc/elements/1.1/" xmlns:inkscape="http://www.inkscape.org/namespaces/inkscape" xmlns:sodipodi="http://sodipodi.sourceforge.net/DTD/sodipodi-0.dtd" sodipodi:docname="linkedin.svg" inkscape:version="0.47 r22583" sodipodi:version="0.32" inkscape:output_extension="org.inkscape.output.svg.inkscape"
	 xmlns="http://www.w3.org/2000/svg" xmlns:xlink="http://www.w3.org/1999/xlink" x="0px" y="0px" viewBox="0 0 30 30"
	 enable-background="new 0 0 30 30" xml:space="preserve">
<sodipodi:namedview  borderopacity="1.0" showgrid="false" pagecolor="#ffffff" id="base" inkscape:zoom="0.24748737" inkscape:cy="94.798647" bordercolor="#666666" inkscape:cx="138.80354" inkscape:window-y="281" inkscape:window-x="1" inkscape:pageshadow="2" inkscape:window-width="853" inkscape:window-maximized="0" inkscape:window-height="674" inkscape:pageopacity="0.0" inkscape:current-layer="layer1" inkscape:document-units="px">
	</sodipodi:namedview>
<g id="layer1_1_" transform="translate(-200.55198,-393.96227)" inkscape:label="Layer 1" inkscape:groupmode="layer">
	<g id="g3019" transform="matrix(1.018827,0,0,-1.018827,170.5996,498.03288)">
		<path id="path28_1_" inkscape:connector-curvature="0" fill="#99A0B0" d="M38.5,76.3v13.4H34V76.3H38.5z M36.2,91.5
			c1.5,0,2.5,1,2.5,2.3c0,1.3-1,2.3-2.5,2.3c-1.5,0-2.5-1-2.5-2.3C33.8,92.5,34.7,91.5,36.2,91.5L36.2,91.5L36.2,91.5z"/>
		<path id="path30_1_" inkscape:connector-curvature="0" fill="#99A0B0" d="M40.9,76.3h4.4v7.5c0,0.4,0,0.8,0.1,1.1
			c0.3,0.8,1.1,1.6,2.3,1.6c1.6,0,2.2-1.2,2.2-3v-7.1h4.4V84c0,4.1-2.2,6-5.1,6c-2.4,0-3.4-1.3-4-2.3h0v1.9h-4.4
			C41,88.4,40.9,76.3,40.9,76.3L40.9,76.3z"/>
	</g>
</g>
</svg>
